{"title":"The.Almighty.Johnsons.S02E03.HDTV.XviD-Tallyortoby.avi","uid":7108158,"size":466946894,"categoryP":"video","categoryS":"tv_shows","magnet":"?xt=urn:btih:3ab3fa89fabb5f5f2842a30e7f146f171f41261a&amp;dn=The.Almighty.Johnsons.S02E03.HDTV.XviD-Tallyortoby.avi&amp;tr=udp%3A%2F%2Ftracker.openbittorrent.com%3A80&amp;tr=udp%3A%2F%2Fopen.demonii.com%3A1337&amp;tr=udp%3A%2F%2Ftracker.coppersurfer.tk%3A6969&amp;tr=udp%3A%2F%2Fexodus.desync.com%3A6969","seeders":0,"leechers":0,"uploader":"Tallyortoby","files":1,"time":1331937898,"description":"Format                           : AVI\nFormat/Info                      : Audio Video Interleave\nFile size                        : 445 MiB\nDuration                         : 43mn 33s\nOverall bit rate                 : 1 429 Kbps\nDirector                         : created.with.SUPER(C).v2011.bld.49\nWriting application              : SUPER(C) - by eRightSoft\n\nVideo\nID                               : 0\nFormat                           : MPEG-4 Visual\nFormat profile                   : Simple@L1\nFormat settings, BVOP            : No\nFormat settings, QPel            : No\nFormat settings, GMC             : No warppoints\nFormat settings, Matrix          : Default (H.263)\nCodec ID                         : XVID\nCodec ID/Hint                    : XviD\nDuration                         : 43mn 33s\nBit rate                         : 1 288 Kbps\nWidth                            : 720 pixels\nHeight                           : 480 pixels\nDisplay aspect ratio             : 16:9\nFrame rate                       : 25.000 fps\nStandard                         : NTSC\nColor space                      : YUV\nChroma subsampling               : 4:2:0\nBit depth                        : 8 bits\nScan type                        : Progressive\nBits/(Pixel*Frame)               : 0.149\nStream size                      : 401 MiB (90%)\nWriting library                  : SUPER(C)   \n\nAudio\nID                               : 1\nFormat                           : MPEG Audio\nFormat version                   : Version 1\nFormat profile                   : Layer 3\nCodec ID                         : 55\nCodec ID/Hint                    : MP3\nDuration                         : 43mn 33s\nBit rate mode                    : Constant\nBit rate                         : 128 Kbps\nChannel(s)                       : 2 channels\nSampling rate                    : 48.0 KHz\nStream size                      : 39.9 MiB (9%)\nAlignment                        : Aligned on interleaves\nInterleave, duration             : 24 ms (0.60 video frame)\nInterleave, preload duration     : 504 ms\nWriting library                  : LAME3.97","torrent":{"xt":"urn:btih:3ab3fa89fabb5f5f2842a30e7f146f171f41261a","amp;dn":"The.Almighty.Johnsons.S02E03.HDTV.XviD-Tallyortoby.avi","amp;tr":["udp%3A%2F%2Ftracker.openbittorrent.com%3A80","udp%3A%2F%2Fopen.demonii.com%3A1337","udp%3A%2F%2Ftracker.coppersurfer.tk%3A6969","udp%3A%2F%2Fexodus.desync.com%3A6969"],"infoHash":"3ab3fa89fabb5f5f2842a30e7f146f171f41261a","infoHashBuffer":{"type":"Buffer","data":[58,179,250,137,250,187,95,95,40,66,163,14,127,20,111,23,31,65,38,26]},"announce":[],"urlList":[]}}